<mxfile host="app.diagrams.net" modified="2024-01-06T14:23:25.158Z" agent="Mozilla/5.0 (Windows NT 10.0; Win64; x64) AppleWebKit/537.36 (KHTML, like Gecko) Chrome/119.0.0.0 Safari/537.36" etag="pbscDomciHPhbeedp60D" version="22.1.17" type="github">
  <diagram id="prtHgNgQTEPvFCAcTncT" name="Page-1">
    <mxGraphModel dx="1434" dy="746" grid="1" gridSize="10" guides="1" tooltips="1" connect="1" arrows="1" fold="1" page="1" pageScale="1" pageWidth="827" pageHeight="1169" math="0" shadow="0">
      <root>
        <mxCell id="0" />
        <mxCell id="1" parent="0" />
        <mxCell id="qaKPtoEPgV3FhxAwNnen-60" value="" style="rounded=1;whiteSpace=wrap;html=1;fillColor=#dde7fd;strokeColor=none;" vertex="1" parent="1">
          <mxGeometry x="554" y="200" width="261" height="110" as="geometry" />
        </mxCell>
        <mxCell id="qaKPtoEPgV3FhxAwNnen-61" value="" style="rounded=1;whiteSpace=wrap;html=1;strokeColor=none;fillColor=#6d99f1;fontColor=#ffffff;" vertex="1" parent="1">
          <mxGeometry x="625" y="220" width="160" height="30" as="geometry" />
        </mxCell>
        <mxCell id="qaKPtoEPgV3FhxAwNnen-62" value="nanomsg" style="rounded=1;whiteSpace=wrap;html=1;strokeColor=none;fillColor=#6d99f1;fontColor=#ffffff;" vertex="1" parent="1">
          <mxGeometry x="625" y="260" width="60" height="30" as="geometry" />
        </mxCell>
        <mxCell id="qaKPtoEPgV3FhxAwNnen-63" value="DDS" style="rounded=1;whiteSpace=wrap;html=1;strokeColor=none;fillColor=#6d99f1;fontColor=#ffffff;" vertex="1" parent="1">
          <mxGeometry x="690" y="260" width="40" height="30" as="geometry" />
        </mxCell>
        <mxCell id="qaKPtoEPgV3FhxAwNnen-64" value="HAL" style="text;html=1;strokeColor=none;fillColor=none;align=center;verticalAlign=middle;whiteSpace=wrap;rounded=0;fontColor=#6d99f1;fontStyle=1" vertex="1" parent="1">
          <mxGeometry x="550" y="240" width="70" height="30" as="geometry" />
        </mxCell>
        <mxCell id="qaKPtoEPgV3FhxAwNnen-72" value="nng" style="rounded=1;whiteSpace=wrap;html=1;strokeColor=none;fillColor=#6d99f1;fontColor=#ffffff;" vertex="1" parent="1">
          <mxGeometry x="739" y="260" width="46" height="30" as="geometry" />
        </mxCell>
        <mxCell id="qaKPtoEPgV3FhxAwNnen-79" value="" style="rounded=0;whiteSpace=wrap;html=1;fillColor=#dde7fd;strokeColor=none;glass=0;shadow=0;" vertex="1" parent="1">
          <mxGeometry x="739" y="470" width="600" height="435" as="geometry" />
        </mxCell>
        <mxCell id="qaKPtoEPgV3FhxAwNnen-80" value="MQTT" style="rounded=1;whiteSpace=wrap;html=1;strokeColor=none;fillColor=#6d99f1;fontColor=#ffffff;" vertex="1" parent="1">
          <mxGeometry x="140" y="1060" width="110" height="30" as="geometry" />
        </mxCell>
        <mxCell id="qaKPtoEPgV3FhxAwNnen-81" value="HTTP" style="rounded=1;whiteSpace=wrap;html=1;strokeColor=none;fillColor=#6d99f1;fontColor=#ffffff;" vertex="1" parent="1">
          <mxGeometry x="270" y="1060" width="130" height="30" as="geometry" />
        </mxCell>
        <mxCell id="qaKPtoEPgV3FhxAwNnen-82" value="" style="rounded=1;whiteSpace=wrap;html=1;fillColor=none;dashed=1;strokeColor=#6d99f1;" vertex="1" parent="1">
          <mxGeometry x="120" y="890" width="450" height="140" as="geometry" />
        </mxCell>
        <mxCell id="qaKPtoEPgV3FhxAwNnen-84" value="核心层" style="text;html=1;strokeColor=none;fillColor=none;align=center;verticalAlign=middle;whiteSpace=wrap;rounded=0;fontColor=#6d99f1;fontStyle=1" vertex="1" parent="1">
          <mxGeometry x="200" y="890" width="70" height="30" as="geometry" />
        </mxCell>
        <mxCell id="qaKPtoEPgV3FhxAwNnen-86" value="" style="rounded=1;whiteSpace=wrap;html=1;fillColor=none;dashed=1;strokeColor=#6d99f1;" vertex="1" parent="1">
          <mxGeometry x="120" y="645" width="450" height="175" as="geometry" />
        </mxCell>
        <mxCell id="qaKPtoEPgV3FhxAwNnen-88" value="平台能力组件" style="text;html=1;strokeColor=none;fillColor=none;align=center;verticalAlign=middle;whiteSpace=wrap;rounded=0;fontColor=#6d99f1;fontStyle=1" vertex="1" parent="1">
          <mxGeometry x="200" y="655" width="80" height="30" as="geometry" />
        </mxCell>
        <mxCell id="qaKPtoEPgV3FhxAwNnen-89" value="日志上传" style="rounded=1;whiteSpace=wrap;html=1;strokeColor=none;fillColor=#6d99f1;fontColor=#ffffff;" vertex="1" parent="1">
          <mxGeometry x="130" y="725" width="100" height="30" as="geometry" />
        </mxCell>
        <mxCell id="qaKPtoEPgV3FhxAwNnen-91" value="" style="rounded=1;whiteSpace=wrap;html=1;" vertex="1" parent="1">
          <mxGeometry x="340" y="400" width="120" height="60" as="geometry" />
        </mxCell>
        <mxCell id="qaKPtoEPgV3FhxAwNnen-93" value="OTA" style="rounded=1;whiteSpace=wrap;html=1;strokeColor=none;fillColor=#6d99f1;fontColor=#ffffff;" vertex="1" parent="1">
          <mxGeometry x="130" y="685" width="100" height="30" as="geometry" />
        </mxCell>
        <mxCell id="qaKPtoEPgV3FhxAwNnen-95" value="设备影子" style="rounded=1;whiteSpace=wrap;html=1;strokeColor=none;fillColor=#FF6666;fontColor=#ffffff;" vertex="1" parent="1">
          <mxGeometry x="350" y="685" width="100" height="30" as="geometry" />
        </mxCell>
        <mxCell id="qaKPtoEPgV3FhxAwNnen-96" value="远程登录" style="rounded=1;whiteSpace=wrap;html=1;strokeColor=none;fillColor=#FF6666;fontColor=#ffffff;" vertex="1" parent="1">
          <mxGeometry x="350" y="725" width="100" height="30" as="geometry" />
        </mxCell>
        <mxCell id="qaKPtoEPgV3FhxAwNnen-97" value="设备诊断" style="rounded=1;whiteSpace=wrap;html=1;strokeColor=none;fillColor=#FF6666;fontColor=#ffffff;" vertex="1" parent="1">
          <mxGeometry x="460" y="685" width="100" height="30" as="geometry" />
        </mxCell>
        <mxCell id="qaKPtoEPgV3FhxAwNnen-98" value="图片管理" style="rounded=1;whiteSpace=wrap;html=1;strokeColor=none;fillColor=#6d99f1;fontColor=#ffffff;" vertex="1" parent="1">
          <mxGeometry x="240" y="685" width="100" height="30" as="geometry" />
        </mxCell>
        <mxCell id="qaKPtoEPgV3FhxAwNnen-99" value="地图管理" style="rounded=1;whiteSpace=wrap;html=1;strokeColor=none;fillColor=#6d99f1;fontColor=#ffffff;" vertex="1" parent="1">
          <mxGeometry x="240" y="725" width="100" height="30" as="geometry" />
        </mxCell>
        <mxCell id="qaKPtoEPgV3FhxAwNnen-100" value="设备接入" style="rounded=1;whiteSpace=wrap;html=1;strokeColor=none;fillColor=#6d99f1;fontColor=#ffffff;" vertex="1" parent="1">
          <mxGeometry x="130" y="930" width="100" height="30" as="geometry" />
        </mxCell>
        <mxCell id="qaKPtoEPgV3FhxAwNnen-101" value="设备通信" style="rounded=1;whiteSpace=wrap;html=1;strokeColor=none;fillColor=#6d99f1;fontColor=#ffffff;" vertex="1" parent="1">
          <mxGeometry x="130" y="970" width="100" height="30" as="geometry" />
        </mxCell>
        <mxCell id="qaKPtoEPgV3FhxAwNnen-102" value="插件支持" style="rounded=1;whiteSpace=wrap;html=1;strokeColor=none;fillColor=#6d99f1;fontColor=#ffffff;" vertex="1" parent="1">
          <mxGeometry x="250" y="930" width="100" height="30" as="geometry" />
        </mxCell>
        <mxCell id="qaKPtoEPgV3FhxAwNnen-104" value="......" style="rounded=1;whiteSpace=wrap;html=1;strokeColor=none;fillColor=#FF6666;fontColor=#ffffff;" vertex="1" parent="1">
          <mxGeometry x="460" y="725" width="100" height="30" as="geometry" />
        </mxCell>
        <mxCell id="qaKPtoEPgV3FhxAwNnen-105" value="" style="rounded=1;whiteSpace=wrap;html=1;fillColor=none;dashed=1;strokeColor=#6d99f1;" vertex="1" parent="1">
          <mxGeometry x="582" y="645" width="98" height="310" as="geometry" />
        </mxCell>
        <mxCell id="qaKPtoEPgV3FhxAwNnen-106" value="三方库" style="text;html=1;strokeColor=none;fillColor=none;align=center;verticalAlign=middle;whiteSpace=wrap;rounded=0;fontColor=#6d99f1;fontStyle=1" vertex="1" parent="1">
          <mxGeometry x="591" y="655" width="80" height="30" as="geometry" />
        </mxCell>
        <mxCell id="qaKPtoEPgV3FhxAwNnen-107" value="OTA" style="rounded=1;whiteSpace=wrap;html=1;strokeColor=none;fillColor=#6d99f1;fontColor=#ffffff;" vertex="1" parent="1">
          <mxGeometry x="590" y="685" width="80" height="30" as="geometry" />
        </mxCell>
        <mxCell id="qaKPtoEPgV3FhxAwNnen-108" value="Provision" style="rounded=1;whiteSpace=wrap;html=1;strokeColor=none;fillColor=#6d99f1;fontColor=#ffffff;" vertex="1" parent="1">
          <mxGeometry x="130" y="770" width="100" height="30" as="geometry" />
        </mxCell>
      </root>
    </mxGraphModel>
  </diagram>
</mxfile>
